<?xml version="1.0" encoding="UTF-8" standalone="no"?>
<!-- Created with Inkscape (http://www.inkscape.org/) -->

<svg
   xmlns:dc="http://purl.org/dc/elements/1.1/"
   xmlns:cc="http://creativecommons.org/ns#"
   xmlns:rdf="http://www.w3.org/1999/02/22-rdf-syntax-ns#"
   xmlns:svg="http://www.w3.org/2000/svg"
   xmlns="http://www.w3.org/2000/svg"
   xmlns:sodipodi="http://sodipodi.sourceforge.net/DTD/sodipodi-0.dtd"
   xmlns:inkscape="http://www.inkscape.org/namespaces/inkscape"
   width="50"
   height="37"
   viewBox="0 0 49.999997 37.000001"
   id="svg2"
   version="1.1"
   inkscape:version="0.91 r"
   sodipodi:docname="bucle.svg">
  <defs
     id="defs4" />
  <sodipodi:namedview
     id="base"
     pagecolor="#ffffff"
     bordercolor="#666666"
     borderopacity="1.0"
     inkscape:pageopacity="0.0"
     inkscape:pageshadow="2"
     inkscape:zoom="3.959798"
     inkscape:cx="21.229302"
     inkscape:cy="9.4404661"
     inkscape:document-units="px"
     inkscape:current-layer="layer1"
     showgrid="false"
     inkscape:window-width="1366"
     inkscape:window-height="744"
     inkscape:window-x="0"
     inkscape:window-y="24"
     inkscape:window-maximized="1"
     units="px" />
  <metadata
     id="metadata7">
    <rdf:RDF>
      <cc:Work
         rdf:about="">
        <dc:format>image/svg+xml</dc:format>
        <dc:type
           rdf:resource="http://purl.org/dc/dcmitype/StillImage" />
        <dc:title></dc:title>
      </cc:Work>
    </rdf:RDF>
  </metadata>
  <g
     inkscape:label="Layer 1"
     inkscape:groupmode="layer"
     id="layer1"
     transform="translate(0,-1015.3622)">
    <path
       style="opacity:1;fill:#ffffff;fill-opacity:1;stroke:#ffffff;stroke-width:0.61551023;stroke-linecap:round;stroke-linejoin:round;stroke-miterlimit:4;stroke-dasharray:none;stroke-dashoffset:0;stroke-opacity:1"
       id="path4244-7-0-1-9"
       d="m 10.420655,1019.282 c 0.90527,0.8421 -0.0371,-0.029 0.73986,0.6741 0.15113,0.1366 0.26274,0.2664 0.42958,0.3862 0,0 -0.0688,0.066 -0.0688,0.066 l 0,0 c -0.17243,-0.1287 -0.28305,-0.2526 -0.44188,-0.3962 -0.76264,-0.6895 0.14271,0.148 -0.75231,-0.6863 0,0 0.0936,-0.044 0.0936,-0.044 z"
       inkscape:connector-curvature="0" />
    <path
       style="opacity:1;fill:#ffffff;fill-opacity:1;stroke:#ffffff;stroke-width:0.61551023;stroke-linecap:round;stroke-linejoin:round;stroke-miterlimit:4;stroke-dasharray:none;stroke-dashoffset:0;stroke-opacity:1"
       id="path4244-7-0-6-4"
       d="m 17.800818,1016.4722 c 0.491401,1.133 -0.0226,-0.041 0.407341,0.9131 0.0836,0.1854 0.13376,0.3489 0.23856,0.5253 0,0 -0.0898,0.033 -0.0898,0.033 l 0,0 c -0.10636,-0.1867 -0.15798,-0.3444 -0.245861,-0.5393 -0.42197,-0.9364 0.0714,0.1924 -0.41378,-0.9293 0,0 0.10354,0 0.10354,0 z"
       inkscape:connector-curvature="0" />
    <path
       style="opacity:1;fill:#ffffff;fill-opacity:1;stroke:#ffffff;stroke-width:0.61551023;stroke-linecap:round;stroke-linejoin:round;stroke-miterlimit:4;stroke-dasharray:none;stroke-dashoffset:0;stroke-opacity:1"
       id="path4244-7-0-3-1"
       d="m 25.038722,1015.7132 c -0.0201,1.2342 -0.004,-0.047 -0.006,0.9991 -1.2e-4,0.2034 -0.0223,0.373 4.1e-4,0.5767 0,0 -0.0956,-0.01 -0.0956,-0.01 l 0,0 c -0.0199,-0.2137 -0.001,-0.3787 -0.001,-0.5924 0.002,-1.0264 -0.0146,0.2047 0.007,-1.0167 0,0 0.0956,0.04 0.0956,0.04 z"
       inkscape:connector-curvature="0" />
    <path
       style="opacity:1;fill:#ffffff;fill-opacity:1;stroke:#ffffff;stroke-width:0.61551023;stroke-linecap:round;stroke-linejoin:round;stroke-miterlimit:4;stroke-dasharray:none;stroke-dashoffset:0;stroke-opacity:1"
       id="path4244-7-0-66-7"
       d="m 31.560845,1017.8673 c 0.522651,-1.119 -0.0156,0.044 0.413571,-0.9101 0.0836,-0.1857 0.17274,-0.3317 0.23524,-0.527 0,0 0.0848,0.045 0.0848,0.045 l 0,0 c -0.0693,0.2034 -0.15312,0.3466 -0.24087,0.5417 -0.421331,0.9365 0.0969,-0.1812 -0.421501,0.9257 0,0 -0.0711,-0.075 -0.0711,-0.075 z"
       inkscape:connector-curvature="0" />
    <path
       style="opacity:1;fill:#ffffff;fill-opacity:1;stroke:#ffffff;stroke-width:0.61551023;stroke-linecap:round;stroke-linejoin:round;stroke-miterlimit:4;stroke-dasharray:none;stroke-dashoffset:0;stroke-opacity:1"
       id="path4244-7-0-7-8"
       d="m 38.505859,1020.2986 c 0.91037,-0.8366 -0.0313,0.035 0.72978,-0.6848 0.14808,-0.14 0.28631,-0.2412 0.41861,-0.3981 0,0 0.0613,0.073 0.0613,0.073 l 0,0 c -0.14161,0.1618 -0.27385,0.2624 -0.42943,0.4096 -0.74706,0.7063 0.15872,-0.1308 -0.74309,0.6962 0,0 -0.0371,-0.096 -0.0371,-0.096 z"
       inkscape:connector-curvature="0" />
    <path
       style="opacity:1;fill:#ffffff;fill-opacity:1;stroke:#ffffff;stroke-width:0.61551023;stroke-linecap:round;stroke-linejoin:round;stroke-miterlimit:4;stroke-dasharray:none;stroke-dashoffset:0;stroke-opacity:1"
       id="path4244-7-0-68-9"
       d="m 45.000452,1025.48 c 1.145291,-0.4692 -0.0415,0.022 0.923041,-0.3894 0.18766,-0.08 0.35253,-0.127 0.53126,-0.2282 0,0 0.0319,0.09 0.0319,0.09 l 0,0 c -0.18916,0.1026 -0.34825,0.1512 -0.54542,0.2352 -0.946721,0.4036 0.19441,-0.068 -0.939511,0.3956 0,0 -10e-4,-0.1033 -10e-4,-0.1033 z"
       inkscape:connector-curvature="0" />
    <path
       style="opacity:1;fill:#ffffff;fill-opacity:1;stroke:#ffffff;stroke-width:0.61551023;stroke-linecap:round;stroke-linejoin:round;stroke-miterlimit:4;stroke-dasharray:none;stroke-dashoffset:0;stroke-opacity:1"
       id="path4244-7-0-5-5"
       d="m 48.112054,1033.7836 c 1.23721,0.05 -0.0469,0 1.00182,0.03 0.204,0 0.37353,0.031 0.578341,0.014 0,0 -0.009,0.095 -0.009,0.095 l 0,0 c -0.214861,0.015 -0.379791,-0.01 -0.594131,-0.013 -1.02928,-0.027 0.20498,0.019 -1.01936,-0.031 0,0 0.0421,-0.094 0.0421,-0.094 z"
       inkscape:connector-curvature="0" />
    <path
       style="opacity:1;fill:#ffffff;fill-opacity:1;stroke:#ffffff;stroke-width:0.61551023;stroke-linecap:round;stroke-linejoin:round;stroke-miterlimit:4;stroke-dasharray:none;stroke-dashoffset:0;stroke-opacity:1"
       id="path4244-7-0-58-3"
       d="m 45.069672,1042.0615 c 1.132481,0.4992 -0.0445,-0.015 0.920871,0.3945 0.18779,0.08 0.33596,0.1658 0.53299,0.2243 0,0 -0.0431,0.085 -0.0431,0.085 l 0,0 c -0.20524,-0.065 -0.35054,-0.1459 -0.54786,-0.2296 -0.947531,-0.4017 0.18353,0.093 -0.936731,-0.4021 0,0 0.0739,-0.072 0.0739,-0.072 z"
       inkscape:connector-curvature="0" />
    <path
       style="opacity:1;fill:#ffffff;fill-opacity:1;stroke:#ffffff;stroke-width:0.61551023;stroke-linecap:round;stroke-linejoin:round;stroke-miterlimit:4;stroke-dasharray:none;stroke-dashoffset:0;stroke-opacity:1"
       id="path4244-7-0-8-8"
       d="m 38.570599,1047.2569 c 0.86359,0.8846 -0.0358,-0.03 0.70648,0.7087 0.14437,0.1438 0.24958,0.2788 0.41045,0.4064 0,0 -0.0719,0.063 -0.0719,0.063 l 0,0 c -0.16601,-0.1367 -0.27054,-0.2658 -0.42224,-0.4169 -0.7285,-0.7253 0.1354,0.1547 -0.71835,-0.7216 0,0 0.0957,-0.04 0.0957,-0.04 z"
       inkscape:connector-curvature="0" />
    <path
       style="opacity:1;fill:#ffffff;fill-opacity:1;stroke:#ffffff;stroke-width:0.61551023;stroke-linecap:round;stroke-linejoin:round;stroke-miterlimit:4;stroke-dasharray:none;stroke-dashoffset:0;stroke-opacity:1"
       id="path4244-7-0-4-5"
       d="m 31.753555,1049.7549 c 0.446321,1.1514 -0.021,-0.042 0.370991,0.9282 0.0762,0.1887 0.11988,0.3541 0.21765,0.5344 0,0 -0.091,0.03 -0.091,0.03 l 0,0 c -0.0989,-0.1908 -0.14426,-0.3504 -0.22437,-0.5487 -0.384691,-0.952 0.0637,0.1952 -0.376801,-0.9447 0,0 0.10358,8e-4 0.10358,8e-4 z"
       inkscape:connector-curvature="0" />
    <path
       style="opacity:1;fill:#ffffff;fill-opacity:1;stroke:#ffffff;stroke-width:0.61551023;stroke-linecap:round;stroke-linejoin:round;stroke-miterlimit:4;stroke-dasharray:none;stroke-dashoffset:0;stroke-opacity:1"
       id="path4244-7-0-37-3"
       d="m 25.098972,1050.4792 c -0.0503,1.2333 -0.002,-0.047 -0.0302,0.9988 -0.005,0.2032 -0.0314,0.3722 -0.0138,0.5764 0,0 -0.0954,-0.01 -0.0954,-0.01 l 0,0 c -0.0146,-0.2142 0.007,-0.3786 0.0132,-0.5922 0.0272,-1.0261 -0.0195,0.2043 0.0315,-1.0162 0,0 0.0946,0.042 0.0946,0.042 z"
       inkscape:connector-curvature="0" />
    <path
       style="opacity:1;fill:#ffffff;fill-opacity:1;stroke:#ffffff;stroke-width:0.61551023;stroke-linecap:round;stroke-linejoin:round;stroke-miterlimit:4;stroke-dasharray:none;stroke-dashoffset:0;stroke-opacity:1"
       id="path4244-7-0-52-4"
       d="m 17.779988,1051.1998 c 0.475961,-1.1395 -0.014,0.045 0.375611,-0.9263 0.0758,-0.1889 0.15888,-0.3385 0.21326,-0.5361 0,0 0.0865,0.041 0.0865,0.041 l 0,0 c -0.0608,0.2059 -0.13867,0.3525 -0.21828,0.551 -0.382291,0.9531 0.0893,-0.1849 -0.382891,0.9423 0,0 -0.0741,-0.072 -0.0741,-0.072 z"
       inkscape:connector-curvature="0" />
    <path
       style="opacity:1;fill:#ffffff;fill-opacity:1;stroke:#ffffff;stroke-width:0.61551023;stroke-linecap:round;stroke-linejoin:round;stroke-miterlimit:4;stroke-dasharray:none;stroke-dashoffset:0;stroke-opacity:1"
       id="path4244-7-0-85-4"
       d="m 10.407095,1048.3781 c 0.91038,-0.8366 -0.0313,0.035 0.72979,-0.6848 0.14809,-0.14 0.2863,-0.2412 0.41861,-0.3981 0,0 0.0613,0.074 0.0613,0.074 l 0,0 c -0.14161,0.1618 -0.27386,0.2624 -0.42944,0.4096 -0.74706,0.7063 0.15873,-0.1308 -0.74308,0.6962 0,0 -0.0371,-0.096 -0.0371,-0.096 z"
       inkscape:connector-curvature="0" />
    <path
       style="opacity:1;fill:#ffffff;fill-opacity:1;stroke:#ffffff;stroke-width:0.61551023;stroke-linecap:round;stroke-linejoin:round;stroke-miterlimit:4;stroke-dasharray:none;stroke-dashoffset:0;stroke-opacity:1"
       id="path4244-7-0-65-5"
       d="m 3.527371,1042.713 c 1.1440205,-0.4723 -0.0414,0.022 0.9219904,-0.3919 0.1874301,-0.081 0.3521802,-0.1279 0.5306403,-0.2296 0,0 0.0321,0.09 0.0321,0.09 l 0,0 c -0.1889001,0.1031 -0.3478502,0.1521 -0.5448003,0.2367 -0.9456304,0.4061 0.1942401,-0.068 -0.9384404,0.3981 0,0 -9.9e-4,-0.1033 -9.9e-4,-0.1033 z"
       inkscape:connector-curvature="0" />
    <path
       style="opacity:1;fill:#ffffff;fill-opacity:1;stroke:#ffffff;stroke-width:0.61551023;stroke-linecap:round;stroke-linejoin:round;stroke-miterlimit:4;stroke-dasharray:none;stroke-dashoffset:0;stroke-opacity:1"
       id="path4244-7-0-82-9"
       d="m 0.35006935,1033.7962 c 1.23719065,0.05 -0.0468,0 1.00182055,0.03 0.2040001,0 0.3735101,0.031 0.5783403,0.014 0,0 -0.009,0.095 -0.009,0.095 l 0,0 c -0.2148501,0.015 -0.3797701,-0.01 -0.5941203,-0.013 -1.02929048,-0.027 0.2049802,0.019 -1.01937047,-0.031 0,0 0.0421,-0.094 0.0421,-0.094 z"
       inkscape:connector-curvature="0" />
    <path
       style="opacity:1;fill:#ffffff;fill-opacity:1;stroke:#ffffff;stroke-width:0.61551023;stroke-linecap:round;stroke-linejoin:round;stroke-miterlimit:4;stroke-dasharray:none;stroke-dashoffset:0;stroke-opacity:1"
       id="path4244-7-0-662-8"
       d="m 3.563241,1024.9412 c 1.1451906,0.4694 -0.0449,-0.014 0.9309005,0.3703 0.1898101,0.075 0.3401901,0.1569 0.5386802,0.2102 0,0 -0.0408,0.086 -0.0408,0.086 l 0,0 c -0.2068801,-0.06 -0.3542502,-0.1367 -0.5537003,-0.2152 -0.9577405,-0.3768 0.1859101,0.088 -0.9469505,-0.3775 0,0 0.0719,-0.074 0.0719,-0.074 z"
       inkscape:connector-curvature="0" />
    <path
       style="fill:#ffffff"
       d="m 11.27681,1043.8382 c -1.4058422,-0.3508 -2.4795672,-1.9502 -3.1140784,-4.6389 -0.5067495,-2.1473 -0.7940528,-4.7148 -0.7928911,-7.0854 9.444e-4,-2.0102 0.112632,-2.8754 0.4808912,-3.7271 0.3107722,-0.7188 0.8348613,-1.2022 1.3033805,-1.2022 0.2878982,0 0.6095974,0.343 0.7324198,0.7809 0.35585,1.2688 0.268632,5.3295 -0.2040995,9.5024 -0.074799,0.6605 -0.070548,0.854 0.030033,1.3756 0.4543435,2.3551 1.2444885,3.9658 2.1405385,4.3634 0.455288,0.202 1.071439,0.074 1.451873,-0.3018 0.323984,-0.32 0.658754,-1.2255 0.660738,-1.7872 9.16e-4,-0.2597 -0.02323,-0.2762 -0.540466,-0.3677 -0.752215,-0.1331 -1.784168,-0.9125 -2.270262,-1.7146 -0.458745,-0.7569 -0.693757,-1.8744 -0.569971,-2.7102 0.279768,-1.889 2.122905,-2.3336 3.464138,-0.8354 0.761357,0.8504 1.199513,2.0658 1.268136,3.5176 l 0.04051,0.8563 0.214375,-0.1173 c 0.355604,-0.1948 0.848574,-0.7747 1.045363,-1.2298 l 0.185428,-0.4289 -0.08386,-1.2675 c -0.04618,-0.6971 -0.08348,-1.6043 -0.08292,-2.016 8.87e-4,-0.6859 0.0154,-0.7639 0.172772,-0.9305 0.09448,-0.1001 0.343969,-0.2361 0.554415,-0.3023 0.765692,-0.2407 0.753585,-0.2687 0.856158,1.9814 0.131889,2.8931 0.311821,4.2133 0.678663,4.9793 0.245872,0.5134 0.415707,0.6535 0.84507,0.6972 0.355199,0.036 0.373087,0.028 0.674084,-0.3046 0.389915,-0.4309 0.66121,-1.135 0.822215,-2.1341 0.120528,-0.7479 0.119338,-0.7939 -0.08009,-3.0966 l -0.202417,-2.3374 0.200038,-0.2211 c 0.110025,-0.1216 0.373028,-0.2788 0.584466,-0.3494 0.334448,-0.1116 0.397565,-0.114 0.485594,-0.018 0.0713,0.078 0.187573,0.9796 0.393778,3.0549 0.442717,4.4558 0.583682,5.0445 1.161376,4.8504 0.442832,-0.1488 1.526708,-3.3023 1.616891,-4.7042 0.124088,-1.9289 0.941194,-3.5242 2.11976,-4.1386 0.408558,-0.2129 0.55211,-0.2478 1.021914,-0.2484 0.838403,0 1.291254,0.3122 1.517037,1.0492 0.118705,0.3874 0.04099,0.8109 -0.22754,1.2402 -0.212326,0.3394 -0.651209,0.7261 -0.824113,0.7261 -0.145196,0 -0.179271,-0.2414 -0.09485,-0.6719 0.119035,-0.6072 0.03409,-1.0604 -0.25625,-1.3678 -0.540522,-0.5724 -1.39482,-0.109 -1.773497,0.962 -0.565332,1.5987 -0.147669,4.2451 0.839773,5.3209 0.463626,0.5051 0.835975,0.6815 1.438206,0.6815 0.634332,0 0.95555,-0.1671 1.472461,-0.7659 0.419202,-0.4857 1.023302,-1.722 1.346985,-2.7565 l 0.194891,-0.623 -0.188592,-1.0584 c -0.511708,-2.8717 -0.6539,-4.3068 -0.653872,-6.599 2.8e-5,-2.0733 0.05875,-2.603 0.392729,-3.5446 0.24693,-0.6961 0.807502,-1.2705 1.239094,-1.2698 0.315759,8e-4 0.611977,0.2681 0.733222,0.6623 0.385259,1.2526 0.343686,4.9044 -0.103121,9.0587 l -0.145517,1.353 0.289928,1.2651 c 0.546075,2.3827 0.861305,3.0981 1.365137,3.0981 0.292715,0 0.737312,-0.7696 1.169952,-2.0252 0.217454,-0.6311 0.241037,-0.7887 0.285944,-1.9106 0.0766,-1.9133 0.414536,-2.9173 1.305411,-3.8779 1.437555,-1.55 3.384805,-1.2833 3.384805,0.4638 0,0.9127 -0.659802,1.9221 -2.237274,3.4227 -1.042276,0.9914 -0.999116,0.8856 -0.661947,1.6229 0.4364,0.9544 1.141885,1.4908 1.960937,1.4911 0.567674,0 0.9523,-0.1862 1.394508,-0.6756 0.536073,-0.5933 1.112701,-1.7849 1.498404,-3.0966 0.09275,-0.3152 0.175002,-0.5843 0.182887,-0.5979 0.02607,-0.045 0.460813,0.2185 0.460813,0.2792 0,0.2307 -0.585373,1.8292 -0.972227,2.6549 -0.964551,2.0588 -2.070537,2.9708 -3.442718,2.8391 -0.458245,-0.044 -1.106837,-0.3278 -1.455661,-0.637 -0.328961,-0.2916 -0.763018,-0.9203 -0.963359,-1.3953 -0.09526,-0.2259 -0.186524,-0.3966 -0.202815,-0.3794 -0.01624,0.017 -0.131983,0.3396 -0.25711,0.7164 -0.471106,1.4186 -1.014944,2.3396 -1.509445,2.5565 -0.366738,0.1609 -0.968507,0.065 -1.282065,-0.2033 -0.367427,-0.3149 -0.762206,-1.1116 -1.088297,-2.1964 l -0.273675,-0.9104 -0.132267,0.3754 c -0.281702,0.7997 -0.869483,1.9787 -1.275388,2.5584 -0.766466,1.0945 -1.588322,1.5688 -2.616752,1.51 -1.213509,-0.069 -2.222447,-1.0094 -2.708467,-2.5234 l -0.12693,-0.3954 -0.345631,1.1414 c -0.644853,2.1295 -1.121493,2.7845 -2.026279,2.7845 -0.647384,0 -1.097856,-0.4437 -1.338551,-1.3185 -0.08377,-0.3046 -0.168665,-0.6055 -0.188564,-0.6685 -0.02087,-0.066 -0.105615,0.079 -0.200596,0.3444 -0.581794,1.6243 -1.268673,2.3304 -2.266911,2.3304 -0.749977,0 -1.295759,-0.4249 -1.695807,-1.3203 -0.205734,-0.4605 -0.478058,-1.5537 -0.480193,-1.9277 l -9.44e-4,-0.2292 -0.197678,0.2674 c -0.321056,0.4344 -0.749429,0.8213 -1.142781,1.032 -0.349918,0.1875 -0.374351,0.2208 -0.492498,0.6707 -0.264646,1.0079 -0.8947,1.9522 -1.593791,2.3888 -0.583607,0.3644 -1.586037,0.5106 -2.292701,0.3344 z m 2.689663,-4.0337 c 0,-0.9085 -0.354508,-2.3353 -0.800276,-3.2209 -0.423451,-0.8412 -1.05666,-1.2503 -1.480329,-0.9563 -0.316334,0.2194 -0.487898,0.7465 -0.435888,1.3391 0.131644,1.4997 0.97591,2.6922 2.184131,3.0851 0.528329,0.1718 0.532362,0.1699 0.532362,-0.247 z m -4.504913,-6.9263 c 0.064032,-3.0652 -0.053738,-4.4911 -0.3801117,-4.6035 -0.1895932,-0.065 -0.268122,0.3336 -0.2969081,1.5083 -0.037115,1.514 0.2420182,5.2029 0.471277,6.2285 0.088776,0.3969 0.1522224,-0.5699 0.2057428,-3.1333 z m 29.199162,1.1272 c 0.701291,-0.7712 1.094625,-1.4129 1.247915,-2.0361 0.168778,-0.6861 0.0047,-1.2572 -0.423235,-1.4732 -0.338755,-0.1711 -0.682799,-0.085 -1.01263,0.2546 -0.523248,0.5381 -0.730512,1.3944 -0.668813,2.7633 0.03947,0.877 0.08699,1.1601 0.194505,1.1601 0.02974,0 0.327809,-0.3009 0.662258,-0.6687 z m -5.34882,-4.4846 c 0.111611,-2.4472 0.0066,-4.9473 -0.227446,-5.4102 -0.0747,-0.1477 -0.245428,-0.1805 -0.315428,-0.061 -0.02409,0.041 -0.0781,0.3938 -0.119999,0.7833 -0.11146,1.0367 0.08103,4.119 0.421279,6.7457 l 0.04949,0.3821 0.05232,-0.2622 c 0.02881,-0.1442 0.09171,-1.1243 0.139737,-2.1781 z"
       id="path4336"
       inkscape:connector-curvature="0" />
  </g>
</svg>
