<?xml version="1.0" encoding="UTF-8" standalone="no"?>
<!-- Created with Inkscape (http://www.inkscape.org/) -->

<svg
   xmlns:dc="http://purl.org/dc/elements/1.1/"
   xmlns:cc="http://creativecommons.org/ns#"
   xmlns:rdf="http://www.w3.org/1999/02/22-rdf-syntax-ns#"
   xmlns:svg="http://www.w3.org/2000/svg"
   xmlns="http://www.w3.org/2000/svg"
   xmlns:sodipodi="http://sodipodi.sourceforge.net/DTD/sodipodi-0.dtd"
   xmlns:inkscape="http://www.inkscape.org/namespaces/inkscape"
   width="210mm"
   height="297mm"
   viewBox="0 0 744.09448819 1052.3622047"
   id="svg2"
   version="1.1"
   inkscape:version="0.91 r"
   sodipodi:docname="bucle.svg">
  <defs
     id="defs4" />
  <sodipodi:namedview
     id="base"
     pagecolor="#ffffff"
     bordercolor="#666666"
     borderopacity="1.0"
     inkscape:pageopacity="0.0"
     inkscape:pageshadow="2"
     inkscape:zoom="3.959798"
     inkscape:cx="-356.21316"
     inkscape:cy="861.39258"
     inkscape:document-units="px"
     inkscape:current-layer="layer1"
     showgrid="false"
     inkscape:window-width="1366"
     inkscape:window-height="744"
     inkscape:window-x="0"
     inkscape:window-y="24"
     inkscape:window-maximized="1" />
  <metadata
     id="metadata7">
    <rdf:RDF>
      <cc:Work
         rdf:about="">
        <dc:format>image/svg+xml</dc:format>
        <dc:type
           rdf:resource="http://purl.org/dc/dcmitype/StillImage" />
        <dc:title></dc:title>
      </cc:Work>
    </rdf:RDF>
  </metadata>
  <g
     inkscape:label="Layer 1"
     inkscape:groupmode="layer"
     id="layer1">
    <text
       xml:space="preserve"
       style="font-style:normal;font-variant:normal;font-weight:normal;font-stretch:normal;font-size:30.55804062px;line-height:125%;font-family:'My Underwood';-inkscape-font-specification:'My Underwood';letter-spacing:-3.71061945px;word-spacing:0px;fill:#000000;fill-opacity:1;stroke:none;stroke-width:1px;stroke-linecap:butt;stroke-linejoin:miter;stroke-opacity:1"
       x="-356.60724"
       y="245.34885"
       id="text4136-2-3"
       sodipodi:linespacing="125%"
       transform="matrix(0.99156018,0.12964724,-0.12964724,0.99156018,0,0)"><tspan
         sodipodi:role="line"
         id="tspan4138-5-6"
         x="-356.60724"
         y="245.34885"
         style="font-style:normal;font-variant:normal;font-weight:normal;font-stretch:normal;font-family:Rochester;-inkscape-font-specification:Rochester;letter-spacing:0.00000002px">bucle</tspan></text>
    <path
       sodipodi:type="star"
       style="opacity:1;fill:#ff0000;fill-opacity:1;stroke:#ff0000;stroke-width:1;stroke-linecap:round;stroke-linejoin:round;stroke-miterlimit:4;stroke-dasharray:none;stroke-dashoffset:0;stroke-opacity:1"
       id="path4492"
       sodipodi:sides="16"
       sodipodi:cx="-359.46725"
       sodipodi:cy="189.18823"
       sodipodi:r1="45.440376"
       sodipodi:r2="1.5061235"
       sodipodi:arg1="1.0471976"
       sodipodi:arg2="1.2435471"
       inkscape:flatsided="false"
       inkscape:rounded="0"
       inkscape:randomized="0"
       d="m -336.74707,228.54075 -22.23606,-37.92632 5.44703,43.62543 -6.02966,-43.54873 -11.66233,42.38913 11.09469,-42.54123 -26.9962,34.69948 26.52998,-35.05722 -38.22016,21.72713 37.92633,-22.23606 -43.62543,5.44703 43.54873,-6.02966 -42.38914,-11.66233 42.54123,11.09469 -34.69947,-26.99621 35.05722,26.52999 -21.72713,-38.22016 22.23606,37.92633 -5.44703,-43.62544 6.02966,43.54873 11.66233,-42.38913 -11.09469,42.54123 26.99621,-34.69947 -26.52999,35.05722 38.22016,-21.72713 -37.92633,22.23605 43.62543,-5.44702 -43.54873,6.02966 42.38914,11.66233 -42.54123,-11.0947 34.69947,26.99621 -35.05722,-26.52998 z"
       transform="matrix(0.99156018,0.12964724,-0.12964724,0.99156018,21.493894,48.200654)" />
    <path
       style="opacity:1;fill:#000000;fill-opacity:1;stroke:#111111;stroke-width:0.84649491;stroke-linecap:round;stroke-linejoin:round;stroke-miterlimit:4;stroke-dasharray:none;stroke-dashoffset:0;stroke-opacity:1"
       id="path4244-7-0-1"
       d="m -379.50628,169.12133 c 1.24303,1.16003 -0.051,-0.0393 1.0159,0.92845 0.20752,0.1883 0.36078,0.36708 0.58987,0.53203 0,0 -0.0945,0.0915 -0.0945,0.0915 l 0,0 c -0.23675,-0.17718 -0.38865,-0.34785 -0.60673,-0.54567 -1.0472,-0.94987 0.19596,0.20382 -1.03302,-0.94547 0,0 0.12858,-0.0608 0.12858,-0.0608 z"
       inkscape:connector-curvature="0" />
    <path
       style="opacity:1;fill:#000000;fill-opacity:1;stroke:#111111;stroke-width:0.84649491;stroke-linecap:round;stroke-linejoin:round;stroke-miterlimit:4;stroke-dasharray:none;stroke-dashoffset:0;stroke-opacity:1"
       id="path4244-7-0-6"
       d="m -369.37242,165.25113 c 0.67475,1.56062 -0.031,-0.0565 0.55932,1.25749 0.1148,0.25562 0.18367,0.4808 0.32758,0.72365 0,0 -0.12326,0.046 -0.12326,0.046 l 0,0 c -0.14604,-0.25713 -0.21692,-0.47434 -0.33759,-0.74291 -0.57941,-1.28965 0.098,0.26521 -0.56819,-1.27994 0,0 0.14219,-0.004 0.14219,-0.004 z"
       inkscape:connector-curvature="0" />
    <path
       style="opacity:1;fill:#000000;fill-opacity:1;stroke:#111111;stroke-width:0.84649491;stroke-linecap:round;stroke-linejoin:round;stroke-miterlimit:4;stroke-dasharray:none;stroke-dashoffset:0;stroke-opacity:1"
       id="path4244-7-0-3"
       d="m -359.43389,164.20552 c -0.0276,1.7 -0.005,-0.0642 -0.008,1.37623 -1.7e-4,0.28021 -0.0306,0.51379 5.6e-4,0.79435 0,0 -0.13129,-0.009 -0.13129,-0.009 l 0,0 c -0.0273,-0.29445 -0.002,-0.52157 -0.002,-0.81601 0.003,-1.41382 -0.0199,0.28204 0.009,-1.40035 0,0 0.13133,0.0546 0.13133,0.0546 z"
       inkscape:connector-curvature="0" />
    <path
       style="opacity:1;fill:#000000;fill-opacity:1;stroke:#111111;stroke-width:0.84649491;stroke-linecap:round;stroke-linejoin:round;stroke-miterlimit:4;stroke-dasharray:none;stroke-dashoffset:0;stroke-opacity:1"
       id="path4244-7-0-66"
       d="m -350.47822,167.17263 c 0.71766,-1.54135 -0.0216,0.0606 0.56788,-1.25364 0.11471,-0.25566 0.23719,-0.45677 0.32301,-0.72571 0,0 0.11631,0.0615 0.11631,0.0615 l 0,0 c -0.0951,0.28001 -0.21025,0.47732 -0.33075,0.74598 -0.57855,1.29002 0.13306,-0.24948 -0.57876,1.27519 0,0 -0.0977,-0.10341 -0.0977,-0.10341 z"
       inkscape:connector-curvature="0" />
    <path
       style="opacity:1;fill:#000000;fill-opacity:1;stroke:#111111;stroke-width:0.84649491;stroke-linecap:round;stroke-linejoin:round;stroke-miterlimit:4;stroke-dasharray:none;stroke-dashoffset:0;stroke-opacity:1"
       id="path4244-7-0-7"
       d="m -340.94187,170.52164 c 1.25005,-1.15245 -0.043,0.0479 1.00208,-0.94335 0.20334,-0.1928 0.39313,-0.33221 0.5748,-0.54827 0,0 0.0842,0.10114 0.0842,0.10114 l 0,0 c -0.19445,0.22278 -0.37604,0.36145 -0.58967,0.56407 -1.02579,0.97295 0.21795,-0.18011 -1.02034,0.95914 0,0 -0.051,-0.13279 -0.051,-0.13279 z"
       inkscape:connector-curvature="0" />
    <path
       style="opacity:1;fill:#000000;fill-opacity:1;stroke:#111111;stroke-width:0.84649491;stroke-linecap:round;stroke-linejoin:round;stroke-miterlimit:4;stroke-dasharray:none;stroke-dashoffset:0;stroke-opacity:1"
       id="path4244-7-0-68"
       d="m -332.02399,177.65863 c 1.57262,-0.64624 -0.057,0.03 1.26744,-0.53634 0.25767,-0.11013 0.48407,-0.17489 0.7295,-0.31436 0,0 0.0438,0.12409 0.0438,0.12409 l 0,0 c -0.25974,0.14134 -0.4782,0.20826 -0.74893,0.32401 -1.29996,0.55586 0.26696,-0.0931 -1.29006,0.54481 0,0 -0.002,-0.14225 -0.002,-0.14225 z"
       inkscape:connector-curvature="0" />
    <path
       style="opacity:1;fill:#000000;fill-opacity:1;stroke:#111111;stroke-width:0.84649491;stroke-linecap:round;stroke-linejoin:round;stroke-miterlimit:4;stroke-dasharray:none;stroke-dashoffset:0;stroke-opacity:1"
       id="path4244-7-0-5"
       d="m -327.75139,189.09617 c 1.69883,0.069 -0.0643,0.003 1.37563,0.0415 0.28012,0.007 0.51289,0.0431 0.79413,0.0188 0,0 -0.012,0.13103 -0.012,0.13103 l 0,0 c -0.29502,0.02 -0.52148,-0.0103 -0.81581,-0.0181 -1.41333,-0.0374 0.28147,0.0268 -1.39971,-0.0433 0,0 0.0578,-0.12997 0.0578,-0.12997 z"
       inkscape:connector-curvature="0" />
    <path
       style="opacity:1;fill:#000000;fill-opacity:1;stroke:#111111;stroke-width:0.84649491;stroke-linecap:round;stroke-linejoin:round;stroke-miterlimit:4;stroke-dasharray:none;stroke-dashoffset:0;stroke-opacity:1"
       id="path4244-7-0-58"
       d="m -331.92895,200.49855 c 1.55504,0.68748 -0.0611,-0.0204 1.26447,0.54333 0.25784,0.10971 0.46131,0.22825 0.73186,0.30881 0,0 -0.0592,0.11749 -0.0592,0.11749 l 0,0 c -0.28181,-0.0896 -0.48133,-0.20091 -0.75228,-0.31614 -1.30107,-0.55329 0.25202,0.12816 -1.28624,-0.55379 0,0 0.10149,-0.0997 0.10149,-0.0997 z"
       inkscape:connector-curvature="0" />
    <path
       style="opacity:1;fill:#000000;fill-opacity:1;stroke:#111111;stroke-width:0.84649491;stroke-linecap:round;stroke-linejoin:round;stroke-miterlimit:4;stroke-dasharray:none;stroke-dashoffset:0;stroke-opacity:1"
       id="path4244-7-0-8"
       d="m -340.85298,207.65475 c 1.18583,1.21845 -0.0491,-0.0417 0.9701,0.97622 0.19822,0.19807 0.3427,0.38402 0.56359,0.55978 0,0 -0.0988,0.0869 -0.0988,0.0869 l 0,0 c -0.22796,-0.18835 -0.37148,-0.36613 -0.57979,-0.5742 -1.00032,-0.99913 0.18592,0.213 -0.98638,-0.99406 0,0 0.13136,-0.0545 0.13136,-0.0545 z"
       inkscape:connector-curvature="0" />
    <path
       style="opacity:1;fill:#000000;fill-opacity:1;stroke:#111111;stroke-width:0.84649491;stroke-linecap:round;stroke-linejoin:round;stroke-miterlimit:4;stroke-dasharray:none;stroke-dashoffset:0;stroke-opacity:1"
       id="path4244-7-0-4"
       d="m -350.2136,211.09559 c 0.61284,1.58594 -0.0288,-0.0576 0.50941,1.27851 0.10465,0.25993 0.16461,0.48766 0.29886,0.73598 0,0 -0.12499,0.0412 -0.12499,0.0412 l 0,0 c -0.13581,-0.26268 -0.19809,-0.4825 -0.3081,-0.75562 -0.52823,-1.31143 0.0875,0.26887 -0.5174,-1.30129 0,0 0.14225,0.001 0.14225,0.001 z"
       inkscape:connector-curvature="0" />
    <path
       style="opacity:1;fill:#000000;fill-opacity:1;stroke:#111111;stroke-width:0.84649491;stroke-linecap:round;stroke-linejoin:round;stroke-miterlimit:4;stroke-dasharray:none;stroke-dashoffset:0;stroke-opacity:1"
       id="path4244-7-0-37"
       d="m -359.35117,212.09325 c -0.069,1.69883 -0.003,-0.0643 -0.0415,1.37563 -0.007,0.28012 -0.0431,0.51289 -0.0188,0.79413 0,0 -0.13103,-0.012 -0.13103,-0.012 l 0,0 c -0.02,-0.29502 0.0103,-0.52147 0.0181,-0.81581 0.0374,-1.41333 -0.0268,0.28147 0.0433,-1.39971 0,0 0.12996,0.0578 0.12996,0.0578 z"
       inkscape:connector-curvature="0" />
    <path
       style="opacity:1;fill:#000000;fill-opacity:1;stroke:#111111;stroke-width:0.84649491;stroke-linecap:round;stroke-linejoin:round;stroke-miterlimit:4;stroke-dasharray:none;stroke-dashoffset:0;stroke-opacity:1"
       id="path4244-7-0-52"
       d="m -369.40103,213.08576 c 0.65356,-1.5696 -0.0191,0.0615 0.51576,-1.27597 0.10408,-0.26016 0.21817,-0.46616 0.29284,-0.73839 0,0 0.11875,0.0567 0.11875,0.0567 l 0,0 c -0.0835,0.28368 -0.19042,0.48557 -0.29974,0.75896 -0.52492,1.31278 0.12266,-0.25473 -0.52574,1.29795 0,0 -0.10182,-0.0993 -0.10182,-0.0993 z"
       inkscape:connector-curvature="0" />
    <path
       style="opacity:1;fill:#000000;fill-opacity:1;stroke:#111111;stroke-width:0.84649491;stroke-linecap:round;stroke-linejoin:round;stroke-miterlimit:4;stroke-dasharray:none;stroke-dashoffset:0;stroke-opacity:1"
       id="path4244-7-0-85"
       d="m -379.5249,209.19914 c 1.25005,-1.15245 -0.043,0.0479 1.00208,-0.94335 0.20334,-0.1928 0.39313,-0.33221 0.5748,-0.54827 0,0 0.0842,0.10114 0.0842,0.10114 l 0,0 c -0.19445,0.22278 -0.37604,0.36145 -0.58967,0.56407 -1.02579,0.97295 0.21795,-0.18011 -1.02034,0.95914 0,0 -0.051,-0.13279 -0.051,-0.13279 z"
       inkscape:connector-curvature="0" />
    <path
       style="opacity:1;fill:#000000;fill-opacity:1;stroke:#111111;stroke-width:0.84649491;stroke-linecap:round;stroke-linejoin:round;stroke-miterlimit:4;stroke-dasharray:none;stroke-dashoffset:0;stroke-opacity:1"
       id="path4244-7-0-65"
       d="m -388.97162,201.39582 c 1.57089,-0.65047 -0.0568,0.0301 1.26601,-0.53976 0.25737,-0.11081 0.4836,-0.17618 0.72865,-0.31631 0,0 0.0441,0.12396 0.0441,0.12396 l 0,0 c -0.25937,0.14203 -0.47764,0.20954 -0.74807,0.32602 -1.29847,0.55935 0.26671,-0.0939 -1.28859,0.54828 0,0 -0.002,-0.14224 -0.002,-0.14224 z"
       inkscape:connector-curvature="0" />
    <path
       style="opacity:1;fill:#000000;fill-opacity:1;stroke:#111111;stroke-width:0.84649491;stroke-linecap:round;stroke-linejoin:round;stroke-miterlimit:4;stroke-dasharray:none;stroke-dashoffset:0;stroke-opacity:1"
       id="path4244-7-0-82"
       d="m -393.33445,189.11353 c 1.69883,0.069 -0.0643,0.003 1.37563,0.0415 0.28012,0.007 0.51289,0.0431 0.79413,0.0188 0,0 -0.012,0.13103 -0.012,0.13103 l 0,0 c -0.29502,0.02 -0.52148,-0.0103 -0.81581,-0.0181 -1.41333,-0.0374 0.28147,0.0268 -1.39971,-0.0433 0,0 0.0578,-0.12997 0.0578,-0.12997 z"
       inkscape:connector-curvature="0" />
    <path
       style="opacity:1;fill:#000000;fill-opacity:1;stroke:#111111;stroke-width:0.84649491;stroke-linecap:round;stroke-linejoin:round;stroke-miterlimit:4;stroke-dasharray:none;stroke-dashoffset:0;stroke-opacity:1"
       id="path4244-7-0-662"
       d="m -388.92236,176.91645 c 1.57249,0.64656 -0.0616,-0.0188 1.27824,0.51006 0.26063,0.10292 0.46713,0.21611 0.73969,0.28956 0,0 -0.0561,0.119 -0.0561,0.119 l 0,0 c -0.28406,-0.0822 -0.48642,-0.18826 -0.7603,-0.29636 -1.31509,-0.51907 0.25529,0.12153 -1.30028,-0.51995 0,0 0.0988,-0.10231 0.0988,-0.10231 z"
       inkscape:connector-curvature="0" />
    <ellipse
       style="opacity:1;fill:none;fill-opacity:1;stroke:#808080;stroke-width:1.00910497;stroke-linecap:round;stroke-linejoin:round;stroke-miterlimit:4;stroke-dasharray:none;stroke-dashoffset:0;stroke-opacity:1"
       id="path4140-9-1-1-8"
       cx="-359.46725"
       cy="189.18825"
       rx="30.722218"
       ry="21.916393" />
    <text
       xml:space="preserve"
       style="font-style:normal;font-variant:normal;font-weight:normal;font-stretch:normal;font-size:30.55804062px;line-height:125%;font-family:'My Underwood';-inkscape-font-specification:'My Underwood';letter-spacing:-3.71061945px;word-spacing:0px;fill:#000000;fill-opacity:1;stroke:none;stroke-width:1px;stroke-linecap:butt;stroke-linejoin:miter;stroke-opacity:1"
       x="-376.10233"
       y="232.10205"
       id="text4136-2-3-6"
       sodipodi:linespacing="125%"
       transform="matrix(0.98580383,-0.16790119,0.16790119,0.98580383,0,0)"><tspan
         sodipodi:role="line"
         id="tspan4138-5-6-9"
         x="-376.10233"
         y="232.10205"
         style="font-style:normal;font-variant:normal;font-weight:normal;font-stretch:normal;font-family:Rochester;-inkscape-font-specification:Rochester;letter-spacing:0.00000002px">bucle</tspan></text>
    <path
       style="opacity:1;fill:#000000;fill-opacity:1;stroke:#111111;stroke-width:0.84649491;stroke-linecap:round;stroke-linejoin:round;stroke-miterlimit:4;stroke-dasharray:none;stroke-dashoffset:0;stroke-opacity:1"
       id="path4244-7-0-1-9"
       d="m -329.32474,256.93816 c 1.24303,1.16003 -0.051,-0.0393 1.0159,0.92845 0.20752,0.1883 0.36078,0.36708 0.58987,0.53203 0,0 -0.0945,0.0915 -0.0945,0.0915 l 0,0 c -0.23675,-0.17718 -0.38865,-0.34785 -0.60673,-0.54567 -1.0472,-0.94987 0.19596,0.20382 -1.03302,-0.94547 0,0 0.12858,-0.0608 0.12858,-0.0608 z"
       inkscape:connector-curvature="0" />
    <path
       style="opacity:1;fill:#000000;fill-opacity:1;stroke:#111111;stroke-width:0.84649491;stroke-linecap:round;stroke-linejoin:round;stroke-miterlimit:4;stroke-dasharray:none;stroke-dashoffset:0;stroke-opacity:1"
       id="path4244-7-0-6-4"
       d="m -319.19088,253.06796 c 0.67475,1.56062 -0.031,-0.0565 0.55932,1.25749 0.1148,0.25562 0.18367,0.4808 0.32758,0.72365 0,0 -0.12326,0.046 -0.12326,0.046 l 0,0 c -0.14604,-0.25713 -0.21692,-0.47434 -0.33759,-0.74291 -0.57941,-1.28965 0.098,0.26521 -0.56819,-1.27994 0,0 0.14219,-0.004 0.14219,-0.004 z"
       inkscape:connector-curvature="0" />
    <path
       style="opacity:1;fill:#000000;fill-opacity:1;stroke:#111111;stroke-width:0.84649491;stroke-linecap:round;stroke-linejoin:round;stroke-miterlimit:4;stroke-dasharray:none;stroke-dashoffset:0;stroke-opacity:1"
       id="path4244-7-0-3-1"
       d="m -309.25235,252.02235 c -0.0276,1.7 -0.005,-0.0642 -0.008,1.37623 -1.7e-4,0.28021 -0.0306,0.51379 5.6e-4,0.79435 0,0 -0.13129,-0.009 -0.13129,-0.009 l 0,0 c -0.0273,-0.29445 -0.002,-0.52157 -0.002,-0.81601 0.003,-1.41382 -0.0199,0.28204 0.009,-1.40035 0,0 0.13133,0.0546 0.13133,0.0546 z"
       inkscape:connector-curvature="0" />
    <path
       style="opacity:1;fill:#000000;fill-opacity:1;stroke:#111111;stroke-width:0.84649491;stroke-linecap:round;stroke-linejoin:round;stroke-miterlimit:4;stroke-dasharray:none;stroke-dashoffset:0;stroke-opacity:1"
       id="path4244-7-0-66-7"
       d="m -300.29668,254.98946 c 0.71766,-1.54135 -0.0216,0.0606 0.56788,-1.25364 0.11471,-0.25566 0.23719,-0.45677 0.32301,-0.72571 0,0 0.11631,0.0615 0.11631,0.0615 l 0,0 c -0.0951,0.28001 -0.21025,0.47732 -0.33075,0.74598 -0.57855,1.29002 0.13306,-0.24948 -0.57876,1.27519 0,0 -0.0977,-0.10341 -0.0977,-0.10341 z"
       inkscape:connector-curvature="0" />
    <path
       style="opacity:1;fill:#000000;fill-opacity:1;stroke:#111111;stroke-width:0.84649491;stroke-linecap:round;stroke-linejoin:round;stroke-miterlimit:4;stroke-dasharray:none;stroke-dashoffset:0;stroke-opacity:1"
       id="path4244-7-0-7-8"
       d="m -290.76033,258.33847 c 1.25005,-1.15245 -0.043,0.0479 1.00208,-0.94335 0.20334,-0.1928 0.39313,-0.33221 0.5748,-0.54827 0,0 0.0842,0.10114 0.0842,0.10114 l 0,0 c -0.19445,0.22278 -0.37604,0.36145 -0.58967,0.56407 -1.02579,0.97295 0.21795,-0.18011 -1.02034,0.95914 0,0 -0.051,-0.13279 -0.051,-0.13279 z"
       inkscape:connector-curvature="0" />
    <path
       style="opacity:1;fill:#000000;fill-opacity:1;stroke:#111111;stroke-width:0.84649491;stroke-linecap:round;stroke-linejoin:round;stroke-miterlimit:4;stroke-dasharray:none;stroke-dashoffset:0;stroke-opacity:1"
       id="path4244-7-0-68-9"
       d="m -281.84245,265.47546 c 1.57262,-0.64624 -0.057,0.03 1.26744,-0.53634 0.25767,-0.11013 0.48407,-0.17489 0.7295,-0.31436 0,0 0.0438,0.12409 0.0438,0.12409 l 0,0 c -0.25974,0.14134 -0.4782,0.20826 -0.74893,0.32401 -1.29996,0.55586 0.26696,-0.0931 -1.29006,0.54481 0,0 -0.002,-0.14225 -0.002,-0.14225 z"
       inkscape:connector-curvature="0" />
    <path
       style="opacity:1;fill:#000000;fill-opacity:1;stroke:#111111;stroke-width:0.84649491;stroke-linecap:round;stroke-linejoin:round;stroke-miterlimit:4;stroke-dasharray:none;stroke-dashoffset:0;stroke-opacity:1"
       id="path4244-7-0-5-5"
       d="m -277.56985,276.913 c 1.69883,0.069 -0.0643,0.003 1.37563,0.0415 0.28012,0.007 0.51289,0.0431 0.79413,0.0188 0,0 -0.012,0.13103 -0.012,0.13103 l 0,0 c -0.29502,0.02 -0.52148,-0.0103 -0.81581,-0.0181 -1.41333,-0.0374 0.28147,0.0268 -1.39971,-0.0433 0,0 0.0578,-0.12997 0.0578,-0.12997 z"
       inkscape:connector-curvature="0" />
    <path
       style="opacity:1;fill:#000000;fill-opacity:1;stroke:#111111;stroke-width:0.84649491;stroke-linecap:round;stroke-linejoin:round;stroke-miterlimit:4;stroke-dasharray:none;stroke-dashoffset:0;stroke-opacity:1"
       id="path4244-7-0-58-3"
       d="m -281.74741,288.31538 c 1.55504,0.68748 -0.0611,-0.0204 1.26447,0.54333 0.25784,0.10971 0.46131,0.22825 0.73186,0.30881 0,0 -0.0592,0.11749 -0.0592,0.11749 l 0,0 c -0.28181,-0.0896 -0.48133,-0.20091 -0.75228,-0.31614 -1.30107,-0.55329 0.25202,0.12816 -1.28624,-0.55379 0,0 0.10149,-0.0997 0.10149,-0.0997 z"
       inkscape:connector-curvature="0" />
    <path
       style="opacity:1;fill:#000000;fill-opacity:1;stroke:#111111;stroke-width:0.84649491;stroke-linecap:round;stroke-linejoin:round;stroke-miterlimit:4;stroke-dasharray:none;stroke-dashoffset:0;stroke-opacity:1"
       id="path4244-7-0-8-8"
       d="m -290.67144,295.47158 c 1.18583,1.21845 -0.0491,-0.0417 0.9701,0.97622 0.19822,0.19807 0.3427,0.38402 0.56359,0.55978 0,0 -0.0988,0.0869 -0.0988,0.0869 l 0,0 c -0.22796,-0.18835 -0.37148,-0.36613 -0.57979,-0.5742 -1.00032,-0.99913 0.18592,0.213 -0.98638,-0.99406 0,0 0.13136,-0.0545 0.13136,-0.0545 z"
       inkscape:connector-curvature="0" />
    <path
       style="opacity:1;fill:#000000;fill-opacity:1;stroke:#111111;stroke-width:0.84649491;stroke-linecap:round;stroke-linejoin:round;stroke-miterlimit:4;stroke-dasharray:none;stroke-dashoffset:0;stroke-opacity:1"
       id="path4244-7-0-4-5"
       d="m -300.03206,298.91242 c 0.61284,1.58594 -0.0288,-0.0576 0.50941,1.27851 0.10465,0.25993 0.16461,0.48766 0.29886,0.73598 0,0 -0.12499,0.0412 -0.12499,0.0412 l 0,0 c -0.13581,-0.26268 -0.19809,-0.4825 -0.3081,-0.75562 -0.52823,-1.31143 0.0875,0.26887 -0.5174,-1.30129 0,0 0.14225,10e-4 0.14225,10e-4 z"
       inkscape:connector-curvature="0" />
    <path
       style="opacity:1;fill:#000000;fill-opacity:1;stroke:#111111;stroke-width:0.84649491;stroke-linecap:round;stroke-linejoin:round;stroke-miterlimit:4;stroke-dasharray:none;stroke-dashoffset:0;stroke-opacity:1"
       id="path4244-7-0-37-3"
       d="m -309.16963,299.91008 c -0.069,1.69883 -0.003,-0.0643 -0.0415,1.37563 -0.007,0.28012 -0.0431,0.51289 -0.0188,0.79413 0,0 -0.13103,-0.012 -0.13103,-0.012 l 0,0 c -0.02,-0.29502 0.0103,-0.52147 0.0181,-0.81581 0.0374,-1.41333 -0.0268,0.28147 0.0433,-1.39971 0,0 0.12996,0.0578 0.12996,0.0578 z"
       inkscape:connector-curvature="0" />
    <path
       style="opacity:1;fill:#000000;fill-opacity:1;stroke:#111111;stroke-width:0.84649491;stroke-linecap:round;stroke-linejoin:round;stroke-miterlimit:4;stroke-dasharray:none;stroke-dashoffset:0;stroke-opacity:1"
       id="path4244-7-0-52-4"
       d="m -319.21949,300.90259 c 0.65356,-1.5696 -0.0191,0.0615 0.51576,-1.27597 0.10408,-0.26016 0.21817,-0.46616 0.29284,-0.73839 0,0 0.11875,0.0567 0.11875,0.0567 l 0,0 c -0.0835,0.28368 -0.19042,0.48557 -0.29974,0.75896 -0.52492,1.31278 0.12266,-0.25473 -0.52574,1.29795 0,0 -0.10182,-0.0993 -0.10182,-0.0993 z"
       inkscape:connector-curvature="0" />
    <path
       style="opacity:1;fill:#000000;fill-opacity:1;stroke:#111111;stroke-width:0.84649491;stroke-linecap:round;stroke-linejoin:round;stroke-miterlimit:4;stroke-dasharray:none;stroke-dashoffset:0;stroke-opacity:1"
       id="path4244-7-0-85-4"
       d="m -329.34336,297.01597 c 1.25005,-1.15245 -0.043,0.0479 1.00208,-0.94335 0.20334,-0.1928 0.39313,-0.33221 0.5748,-0.54827 0,0 0.0842,0.10114 0.0842,0.10114 l 0,0 c -0.19445,0.22278 -0.37604,0.36145 -0.58967,0.56407 -1.02579,0.97295 0.21795,-0.18011 -1.02034,0.95914 0,0 -0.051,-0.13279 -0.051,-0.13279 z"
       inkscape:connector-curvature="0" />
    <path
       style="opacity:1;fill:#000000;fill-opacity:1;stroke:#111111;stroke-width:0.84649491;stroke-linecap:round;stroke-linejoin:round;stroke-miterlimit:4;stroke-dasharray:none;stroke-dashoffset:0;stroke-opacity:1"
       id="path4244-7-0-65-5"
       d="m -338.79008,289.21265 c 1.57089,-0.65047 -0.0568,0.0301 1.26601,-0.53976 0.25737,-0.11081 0.4836,-0.17618 0.72865,-0.31631 0,0 0.0441,0.12396 0.0441,0.12396 l 0,0 c -0.25937,0.14203 -0.47764,0.20954 -0.74807,0.32602 -1.29847,0.55935 0.26671,-0.0939 -1.28859,0.54828 0,0 -0.002,-0.14224 -0.002,-0.14224 z"
       inkscape:connector-curvature="0" />
    <path
       style="opacity:1;fill:#000000;fill-opacity:1;stroke:#111111;stroke-width:0.84649491;stroke-linecap:round;stroke-linejoin:round;stroke-miterlimit:4;stroke-dasharray:none;stroke-dashoffset:0;stroke-opacity:1"
       id="path4244-7-0-82-9"
       d="m -343.15291,276.93036 c 1.69883,0.069 -0.0643,0.003 1.37563,0.0415 0.28012,0.007 0.51289,0.0431 0.79413,0.0188 0,0 -0.012,0.13103 -0.012,0.13103 l 0,0 c -0.29502,0.02 -0.52148,-0.0103 -0.81581,-0.0181 -1.41333,-0.0374 0.28147,0.0268 -1.39971,-0.0433 0,0 0.0578,-0.12997 0.0578,-0.12997 z"
       inkscape:connector-curvature="0" />
    <path
       style="opacity:1;fill:#000000;fill-opacity:1;stroke:#111111;stroke-width:0.84649491;stroke-linecap:round;stroke-linejoin:round;stroke-miterlimit:4;stroke-dasharray:none;stroke-dashoffset:0;stroke-opacity:1"
       id="path4244-7-0-662-8"
       d="m -338.74082,264.73328 c 1.57249,0.64656 -0.0616,-0.0188 1.27824,0.51006 0.26063,0.10292 0.46713,0.21611 0.73969,0.28956 0,0 -0.0561,0.119 -0.0561,0.119 l 0,0 c -0.28406,-0.0822 -0.48642,-0.18826 -0.7603,-0.29636 -1.31509,-0.51907 0.25529,0.12153 -1.30028,-0.51995 0,0 0.0988,-0.10231 0.0988,-0.10231 z"
       inkscape:connector-curvature="0" />
  </g>
</svg>
